PP_AM2_Trial_4_OSim_ik										
version=1										
nRows=85										
nColumns=11										
inDegrees=yes										
										
"Units are S.I. units (second, meters, Newtons, ...)"										
Angles are in degrees.										
										
endheader										
time	secondmc_rx	secondmc_rz	secondmc_ry	secondmc_tx	secondmc_ty	secondmc_tz	2MCP_flexion	2MCP_abduction	2PIP_flexion	2DIP_flexion
17.425	-37.7514	-7.1131	-101.802	0.0099787	0.069116	0.062247	-15.937	14.9845	28.3625	52.6271
17.4333	-37.7492	-7.1196	-101.7513	0.010064	0.069264	0.06226	-15.872	14.9849	28.3615	52.5988
17.4417	-37.7466	-7.1274	-101.6965	0.010142	0.069423	0.062275	-15.7991	14.9871	28.3589	52.5657
17.45	-37.7433	-7.137	-101.64	0.010214	0.069588	0.062294	-15.7199	14.9915	28.3548	52.5282
17.4583	-37.7393	-7.1492	-101.5846	0.01028	0.069751	0.062318	-15.6363	14.9984	28.3491	52.4874
17.4667	-37.7343	-7.1645	-101.5332	0.010343	0.069905	0.06235	-15.5506	15.0078	28.3422	52.4444
17.475	-37.728	-7.1836	-101.4887	0.010404	0.070046	0.062391	-15.4647	15.0194	28.3348	52.4006
17.4833	-37.7203	-7.2065	-101.4535	0.010466	0.070167	0.062443	-15.3801	15.0327	28.3279	52.3573
17.4917	-37.7106	-7.2331	-101.4294	0.01053	0.070267	0.062506	-15.2973	15.0467	28.3224	52.3153
17.5	-37.6983	-7.2618	-101.4174	0.010599	0.070345	0.062581	-15.2151	15.0596	28.3199	52.2749
17.5083	-37.6826	-7.2903	-101.4172	0.010674	0.070402	0.062668	-15.1304	15.0695	28.3218	52.2353
17.5167	-37.6621	-7.3143	-101.4277	0.010758	0.070441	0.062766	-15.038	15.0738	28.3296	52.1942
17.525	-37.635	-7.3278	-101.4467	0.010851	0.070464	0.062875	-14.9304	15.0696	28.3445	52.148
17.5333	-37.5995	-7.3231	-101.4708	0.010955	0.070477	0.062994	-14.7984	15.0536	28.3673	52.0913
17.5417	-37.5529	-7.2908	-101.496	0.01107	0.070483	0.06312	-14.6317	15.0231	28.3981	52.0175
17.55	-37.4929	-7.2206	-101.5175	0.011195	0.070487	0.063251	-14.4196	14.9755	28.4362	51.9188
17.5583	-37.417	-7.1021	-101.5306	0.011332	0.070492	0.063385	-14.1529	14.9091	28.4795	51.7868
17.5667	-37.3235	-6.9258	-101.5303	0.011478	0.070501	0.06352	-13.8246	14.8233	28.5248	51.6135
17.575	-37.2116	-6.6848	-101.5121	0.011632	0.070516	0.063654	-13.4323	14.7193	28.5671	51.3924
17.5833	-37.0817	-6.3757	-101.4725	0.011793	0.070539	0.063786	-12.9792	14.6	28.6001	51.119
17.5917	-36.9361	-6.0008	-101.4097	0.01196	0.07057	0.063915	-12.4757	14.4703	28.6161	50.7923
17.6	-36.7789	-5.5681	-101.3233	0.01213	0.070608	0.064042	-11.9391	14.3369	28.6062	50.4151
17.6083	-36.6162	-5.0924	-101.2152	0.012301	0.070652	0.064169	-11.3935	14.2079	28.5609	49.994
17.6167	-36.4552	-4.594	-101.0893	0.012472	0.070701	0.064298	-10.8672	14.0924	28.4703	49.5387
17.625	-36.3034	-4.0967	-100.9512	0.01264	0.070751	0.06443	-10.3894	13.9989	28.3256	49.0601
17.6333	-36.168	-3.6255	-100.8077	0.012805	0.070802	0.06457	-9.9853	13.9345	28.1189	48.5689
17.6417	-36.0544	-3.204	-100.6663	0.012965	0.070848	0.064716	-9.6736	13.9035	27.8449	48.0733
17.65	-35.966	-2.8518	-100.5343	0.013116	0.070888	0.064867	-9.4639	13.9075	27.5012	47.5792
17.6583	-35.904	-2.5832	-100.4186	0.013258	0.070917	0.065022	-9.3572	13.9451	27.0892	47.09
17.6667	-35.8674	-2.4065	-100.3248	0.013387	0.070933	0.065172	-9.3463	14.0122	26.615	46.6082
17.675	-35.8537	-2.3231	-100.2567	0.013501	0.070932	0.065313	-9.4179	14.1026	26.0888	46.1363
17.6833	-35.8588	-2.3283	-100.2165	0.013596	0.070913	0.065436	-9.5544	14.2088	25.5258	45.6775
17.6917	-35.878	-2.4117	-100.2043	0.013671	0.070875	0.065532	-9.736	14.3225	24.9445	45.2367
17.7	-35.906	-2.559	-100.2181	0.013723	0.070817	0.065595	-9.9428	14.4355	24.365	44.8197
17.7083	-35.9374	-2.7539	-100.255	0.01375	0.070741	0.06562	-10.1567	14.5402	23.8059	44.4315
17.7167	-35.967	-2.9802	-100.311	0.013753	0.070651	0.065606	-10.3629	14.6302	23.2814	44.075
17.725	-35.9904	-3.2244	-100.3817	0.013734	0.07055	0.065554	-10.5508	14.7005	22.7991	43.7494
17.7333	-36.0036	-3.476	-100.4631	0.013697	0.070445	0.065471	-10.7141	14.7479	22.3592	43.4499
17.7417	-36.0033	-3.7284	-100.5513	0.013647	0.070342	0.065364	-10.8505	14.7708	21.9551	43.1678
17.75	-35.9874	-3.9785	-100.6427	0.013591	0.070245	0.065245	-10.9612	14.7689	21.5749	42.8919
17.7583	-35.954	-4.2259	-100.734	0.013535	0.070162	0.065123	-11.0496	14.7432	21.2035	42.6096
17.7667	-35.9026	-4.4726	-100.822	0.013484	0.070095	0.06501	-11.1205	14.6954	20.8247	42.3087
17.775	-35.8329	-4.722	-100.9039	0.013445	0.070048	0.064913	-11.1794	14.6279	20.4231	41.978
17.7833	-35.7455	-4.9779	-100.9774	0.013421	0.070023	0.064838	-11.2312	14.5437	19.9854	41.6086
17.7917	-35.6415	-5.2447	-101.0406	0.013413	0.070019	0.064788	-11.2806	14.4456	19.5015	41.1941
17.8	-35.5226	-5.5256	-101.0923	0.013424	0.070035	0.064763	-11.3311	14.3366	18.9658	40.7318
17.8083	-35.3911	-5.8225	-101.132	0.013452	0.070067	0.064761	-11.3848	14.2198	18.3776	40.2231
17.8167	-35.25	-6.1348	-101.1598	0.013496	0.070111	0.064778	-11.4426	14.0984	17.7429	39.6741
17.825	-35.1032	-6.4587	-101.1764	0.013552	0.070163	0.064807	-11.5039	13.9761	17.0742	39.0966
17.8333	-34.9557	-6.7874	-101.1829	0.013617	0.070217	0.064841	-11.5668	13.8567	16.3913	38.5078
17.8417	-34.8128	-7.1113	-101.1808	0.013687	0.070266	0.064874	-11.6284	13.7443	15.7189	37.9289
17.85	-34.6802	-7.4198	-101.1717	0.013756	0.070307	0.064899	-11.6854	13.6428	15.0837	37.3826
17.8583	-34.563	-7.7027	-101.1577	0.013821	0.070333	0.06491	-11.7345	13.5556	14.5105	36.8897
17.8667	-34.465	-7.9523	-101.1408	0.013879	0.070343	0.064904	-11.7732	13.4848	14.019	36.467
17.875	-34.3884	-8.1642	-101.1231	0.013927	0.070334	0.064879	-11.7996	13.4314	13.6217	36.1248
17.8833	-34.3338	-8.3375	-101.1066	0.013965	0.070307	0.064834	-11.8129	13.395	13.3231	35.867
17.8917	-34.2999	-8.4748	-101.0935	0.013991	0.070261	0.06477	-11.8127	13.3737	13.1205	35.6908
17.9	-34.2839	-8.5818	-101.0854	0.014008	0.070198	0.064689	-11.7993	13.3646	13.0046	35.588
17.9083	-34.2812	-8.6665	-101.084	0.014014	0.070119	0.064593	-11.7725	13.3636	12.9609	35.545
17.9167	-34.2859	-8.7388	-101.0899	0.014013	0.070026	0.064485	-11.7321	13.3655	12.9708	35.5446
17.925	-34.2906	-8.8091	-101.1032	0.014007	0.069924	0.064369	-11.6772	13.3646	13.0129	35.5663
17.9333	-34.2872	-8.8881	-101.123	0.013996	0.069816	0.064248	-11.606	13.3549	13.0643	35.5877
17.9417	-34.2665	-8.9857	-101.1478	0.013984	0.069707	0.064127	-11.5164	13.3299	13.1018	35.5854
17.95	-34.2192	-9.11	-101.1748	0.013973	0.069602	0.064007	-11.4055	13.2834	13.1027	35.5359
17.9583	-34.1365	-9.2673	-101.201	0.013965	0.069508	0.063893	-11.2705	13.2096	13.0465	35.4175
17.9667	-34.0102	-9.4609	-101.2229	0.013962	0.069429	0.063786	-11.1087	13.1033	12.9158	35.2114
17.975	-33.8343	-9.691	-101.2373	0.013966	0.069371	0.06369	-10.9181	12.9607	12.6982	34.9032
17.9833	-33.6053	-9.9545	-101.2412	0.013978	0.069337	0.063604	-10.6979	12.7797	12.387	34.4851
17.9917	-33.3232	-10.2451	-101.2325	0.013999	0.069331	0.06353	-10.4487	12.5605	11.9834	33.9569
18	-32.9922	-10.5534	-101.2101	0.014029	0.069352	0.063467	-10.1729	12.306	11.4965	33.3277
18.0083	-32.621	-10.8676	-101.1744	0.014069	0.069397	0.063413	-9.8751	12.0219	10.9443	32.6161
18.0167	-32.2227	-11.1741	-101.1268	0.014116	0.069462	0.063364	-9.5614	11.7169	10.3523	31.8495
18.025	-31.8132	-11.4587	-101.0696	0.01417	0.06954	0.063318	-9.2399	11.4018	9.7511	31.0616
18.0333	-31.4097	-11.7082	-101.006	0.014229	0.069621	0.063269	-8.9192	11.0883	9.173	30.2885
18.0417	-31.0286	-11.9119	-100.939	0.014291	0.069699	0.063215	-8.6077	10.7877	8.647	29.5635
18.05	-30.6832	-12.0628	-100.8711	0.014355	0.069766	0.063152	-8.3132	10.5099	8.1955	28.9137
18.0583	-30.3827	-12.1581	-100.8044	0.014419	0.069816	0.063081	-8.042	10.262	7.8325	28.3574
18.0667	-30.1325	-12.1997	-100.7407	0.014482	0.069846	0.063	-7.7989	10.0489	7.563	27.9039
18.075	-29.9337	-12.1936	-100.6813	0.014545	0.069855	0.062911	-7.5872	9.8727	7.3841	27.5544
18.0833	-29.7846	-12.1488	-100.6276	0.014605	0.069844	0.062817	-7.4085	9.7332	7.2866	27.3033
18.0917	-29.6807	-12.0765	-100.5806	0.014662	0.069816	0.062722	-7.263	9.6286	7.2571	27.1401
18.1	-29.616	-11.9882	-100.5411	0.014716	0.069775	0.062629	-7.1495	9.5554	7.2802	27.0511
18.1083	-29.5834	-11.8947	-100.5096	0.014766	0.069726	0.062541	-7.0651	9.5092	7.3402	27.0209
18.1167	-29.5754	-11.8054	-100.486	0.014811	0.069675	0.062462	-7.006	9.4848	7.4226	27.0342
18.125	-29.5848	-11.7274	-100.4698	0.014851	0.069626	0.062393	-6.9675	9.477	7.5149	27.0765
